<svg id="Layer_2" data-name="Layer 2" xmlns="http://www.w3.org/2000/svg" viewBox="0 0 1920 1080"><defs><style>.cls-1,.cls-4{fill:#f5c693;}.cls-2{fill:#c69c6d;}.cls-3{fill:#fff;}.cls-4{font-size:347.88px;stroke:#a67c52;stroke-miterlimit:10;stroke-width:5px;font-family:A760Roman, A760-Roman;}</style></defs><title>Artboard 1</title><path class="cls-1" d="M779.88,558.4V429.74H934.27l-4.77-38.16A34.76,34.76,0,0,0,895,361.13H677V704.2H960V558.4Z"/><circle class="cls-1" cx="754.15" cy="841.44" r="85.77"/><path class="cls-1" d="M68,652.74v85.77c0,50.88,37.45,93.33,86.13,101.42-.14-2.35-.36-4.68-.36-7.07a120.08,120.08,0,1,1,240.15,0c0,2.89-.23,5.73-.43,8.58H634.08a120,120,0,0,1,240.07-1.55c48.54-8.21,85.85-50.6,85.85-101.38V652.74Z"/><circle class="cls-1" cx="273.85" cy="832.86" r="85.77"/><rect class="cls-2" x="170.92" y="151.95" width="234.91" height="234.91"/><path class="cls-3" d="M322.69,200.79H219.76V338H357V200.79Zm0,68.61v34.31H254.07V235.09h68.62Z"/><rect class="cls-2" x="170.92" y="400.68" width="234.91" height="234.91"/><path class="cls-3" d="M322.69,449.52H219.76V586.75H357V449.52Zm0,68.61v34.31H254.07V483.83h68.62Z"/><rect class="cls-2" x="419.65" y="400.68" width="234.91" height="234.91"/><rect class="cls-3" x="468.49" y="449.52" width="34.31" height="34.31"/><rect class="cls-3" x="537.11" y="449.52" width="34.31" height="34.31"/><rect class="cls-3" x="502.8" y="483.83" width="34.31" height="34.31"/><rect class="cls-3" x="571.42" y="483.83" width="34.31" height="34.31"/><rect class="cls-3" x="468.49" y="518.13" width="34.31" height="34.31"/><rect class="cls-3" x="537.11" y="518.13" width="34.31" height="34.31"/><rect class="cls-3" x="502.8" y="552.44" width="34.31" height="34.31"/><rect class="cls-3" x="571.42" y="552.44" width="34.31" height="34.31"/><rect class="cls-2" x="419.65" y="151.95" width="234.91" height="234.91"/><path class="cls-3" d="M571.42,200.79H468.49V338H605.73V200.79Zm0,68.61v34.31H502.8V235.09h68.62Z"/><text class="cls-4" transform="translate(1001 539.65)">Scan<tspan x="0" y="296.07">Box</tspan></text></svg>