<svg id="Layer_2" data-name="Layer 2" xmlns="http://www.w3.org/2000/svg" viewBox="0 0 1920 1080"><defs><style>.cls-1{fill:#f5c693;}.cls-2{fill:#c69c6d;}.cls-3{fill:#fff;}.cls-4{fill:#a67c52;}</style></defs><title>Artboard 1</title><path class="cls-1" d="M779.88,558.4V429.74H934.27l-4.77-38.16A34.76,34.76,0,0,0,895,361.13H677V704.2H960V558.4Z"/><circle class="cls-1" cx="754.15" cy="841.44" r="85.77"/><path class="cls-1" d="M68,652.74v85.77c0,50.88,37.45,93.33,86.13,101.42-.14-2.35-.36-4.68-.36-7.07a120.08,120.08,0,1,1,240.15,0c0,2.89-.23,5.73-.43,8.58H634.08a120,120,0,0,1,240.07-1.55c48.54-8.21,85.85-50.6,85.85-101.38V652.74Z"/><circle class="cls-1" cx="273.85" cy="832.86" r="85.77"/><rect class="cls-2" x="170.92" y="151.95" width="234.91" height="234.91"/><path class="cls-3" d="M322.69,200.79H219.76V338H357V200.79Zm0,68.61v34.31H254.07V235.09h68.62Z"/><rect class="cls-2" x="170.92" y="400.68" width="234.91" height="234.91"/><path class="cls-3" d="M322.69,449.52H219.76V586.75H357V449.52Zm0,68.61v34.31H254.07V483.83h68.62Z"/><rect class="cls-2" x="419.65" y="400.68" width="234.91" height="234.91"/><rect class="cls-3" x="468.49" y="449.52" width="34.31" height="34.31"/><rect class="cls-3" x="537.11" y="449.52" width="34.31" height="34.31"/><rect class="cls-3" x="502.8" y="483.83" width="34.31" height="34.31"/><rect class="cls-3" x="571.42" y="483.83" width="34.31" height="34.31"/><rect class="cls-3" x="468.49" y="518.13" width="34.31" height="34.31"/><rect class="cls-3" x="537.11" y="518.13" width="34.31" height="34.31"/><rect class="cls-3" x="502.8" y="552.44" width="34.31" height="34.31"/><rect class="cls-3" x="571.42" y="552.44" width="34.31" height="34.31"/><rect class="cls-2" x="419.65" y="151.95" width="234.91" height="234.91"/><path class="cls-3" d="M571.42,200.79H468.49V338H605.73V200.79Zm0,68.61v34.31H502.8V235.09h68.62Z"/><path class="cls-1" d="M1164.15,304.13Q1161,317,1159.46,326.4a124.36,124.36,0,0,0-1.57,20.52h-8.35A113.41,113.41,0,0,0,1148,333q-1.23-7-3-13.22l-21.22-11.14q-2.79-1-9.39-2.78a57.39,57.39,0,0,0-14.61-1.74q-24.36,0-38.62,13.22t-14.26,37.57q0,32.7,34.09,41.4l63.66,10.44q34.1,11.48,34.09,53.22t-33,63.32q-28.18,18.78-72,18.78a96.3,96.3,0,0,1-25.4-3.13,79.56,79.56,0,0,1-22.26-10.09l-1-1.74q4.51-27.14,4.53-45.92l8.34-.35,1.05,1,3.13,24q17.39,22.27,51.83,22.27,25.39,0,40.88-15.14t15.48-40.53q0-34.08-34.09-43.83l-63.66-12.17q-34.11-11.49-34.1-50.45,0-37.91,27.49-58.09,24.34-17,63.66-17,31,0,54.27,11.83Z"/><path class="cls-4" d="M1073.71,544.58a99.19,99.19,0,0,1-26.06-3.22,82.32,82.32,0,0,1-23-10.4l-.49-.31-1.81-3,.15-.91c3-17.89,4.49-33.21,4.49-45.51v-2.4l11.84-.49,2.42,2.42,3.15,24.16c11,13.79,27.67,20.78,49.44,20.78,16.18,0,29.34-4.86,39.13-14.43s14.73-22.59,14.73-38.74c0-21.63-10.53-35.17-32.17-41.39l-63.72-12.19-.16-.05c-23.75-8-35.8-25.77-35.8-52.82,0-26,9.59-46.22,28.51-60.11,16.63-11.64,38.53-17.53,65.14-17.53,20.93,0,39.57,4.07,55.4,12.1l1,.52.77,3.09-.15.6c-2.06,8.49-3.63,15.92-4.66,22.09a123.82,123.82,0,0,0-1.53,20.11v2.5h-13.22l-.12-2.37a112.26,112.26,0,0,0-1.54-13.61c-.73-4.18-1.61-8.19-2.62-11.95l-20.11-10.55c-1.76-.65-4.79-1.54-9-2.65a55.24,55.24,0,0,0-14-1.66c-15.51,0-27.93,4.22-36.92,12.55s-13.46,20.31-13.46,35.74c0,20.67,10.5,33.41,32.1,38.95l63.76,10.45.19.07c23.75,8,35.79,26.7,35.79,55.59,0,28.6-11.5,50.61-34.18,65.41C1128,538.12,1103.29,544.58,1073.71,544.58Zm-45.82-17.51a77,77,0,0,0,21.08,9.47,94.29,94.29,0,0,0,24.74,3c28.58,0,52.34-6.18,70.62-18.36,21.2-13.84,31.93-34.44,31.93-61.24s-10.53-43.42-32.19-50.79l-63.68-10.45c-23.87-6.08-36-20.83-36-43.82,0-16.88,5.07-30.14,15.06-39.4s23.51-13.89,40.32-13.89a60.13,60.13,0,0,1,15.24,1.82c4.56,1.21,7.71,2.14,9.64,2.86l.28.13,22.18,11.64.29,1c1.17,4.21,2.18,8.73,3,13.45.69,3.93,1.17,7.91,1.46,11.85h3.51A126,126,0,0,1,1157,326c1-6.07,2.54-13.33,4.53-21.59-14.88-7.28-32.36-11-52-11-25.56,0-46.5,5.59-62.23,16.6-17.51,12.86-26.42,31.72-26.42,56,0,24.95,10.55,40.66,32.23,48l63.71,12.2c23.83,6.81,35.91,22.36,35.91,46.23,0,17.55-5.46,31.79-16.23,42.32s-25.1,15.85-42.63,15.85c-23.66,0-41.77-7.82-53.8-23.23l-.42-.54-3.07-23.49-4.58.19c-.18,11.93-1.65,26.38-4.39,43Z"/><path class="cls-1" d="M1299.82,378.93a116.82,116.82,0,0,1,16.53,1.39,193.13,193.13,0,0,1,21.39,4.52q-1,3.82-1.91,15.31T1335,423.8l-1,.7h-7.31l-1.39-1.05-2.09-16q-3.83-5.22-16.7-8.87t-22.61-3.65q-45.57,0-45.57,55.31,0,30.27,16.87,51.66t46.44,21.4q17.75,0,36.18-9.75l.7.7v8l-34.79,19.13-14.61,1q-36.52,0-57.92-23T1209.72,460q0-18.08,8.35-36.53l3.48-7.3,12.53-10.79Q1266.76,378.93,1299.82,378.93Z"/><path class="cls-4" d="M1289.13,544.93H1289c-25,0-45.06-8-59.75-23.76s-22.07-36.3-22.07-61.19a91.06,91.06,0,0,1,8.57-37.56l3.73-7.82,12.92-11.13c22.22-18,44.87-27,67.38-27a120.87,120.87,0,0,1,16.89,1.41,196.79,196.79,0,0,1,21.67,4.58l2.44.65-.66,2.43c-.46,1.65-1.14,5.57-1.84,14.83-.57,7.54-.86,15.43-.86,23.47v1.34l-2.79,1.86h-8.89l-2.9-2.18-2.14-16.36c-1.75-2-5.77-4.86-15-7.47a82.31,82.31,0,0,0-21.93-3.56c-29,0-43.07,17.27-43.07,52.81,0,19.51,5.5,36.37,16.33,50.11,10.7,13.57,25.67,20.45,44.48,20.45,11.36,0,23.14-3.18,35-9.46l1.63-.86,2.73,2.74v10.51l-36.56,20.11ZM1223.58,417.7l-3.25,6.83a85.94,85.94,0,0,0-8.11,35.45c0,23.59,7,43,20.73,57.78s32.53,22.15,56,22.17l14-1,33-18.16v-3.5c-11.6,5.66-23.15,8.53-34.38,8.53-20.42,0-36.71-7.52-48.4-22.35-11.55-14.64-17.41-32.55-17.41-53.21,0-38.36,16.17-57.81,48.07-57.81a87.12,87.12,0,0,1,23.3,3.75c9.21,2.61,15.11,5.82,18,9.79l.38.52,2,15.51h4.91c0-7.54.34-14.95.88-22,.44-5.93.92-10.32,1.45-13.3a183.73,183.73,0,0,0-18.8-3.87,116.8,116.8,0,0,0-16.17-1.36c-21.34,0-42.93,8.7-64.17,25.88Z"/><path class="cls-1" d="M1450.8,446.76l1.74-1.74a114.35,114.35,0,0,0-1.57-20.17,60.69,60.69,0,0,0-4.69-15.31q-8.35-16.69-29.57-16.7-10.79,0-18.09,3.83-9.39,5.22-9.39,14.61l.69,8.35,1,8.35-1.39,2.43-16.69,3.83-1.74-.35q-4.53-1.74-4.53-11.13,0-17,34.44-37.57a42.52,42.52,0,0,1,22.27-6.26q31.31,0,44.87,16.69,11.83,15,11.83,46.62l-1,27.13-1,27.14a149,149,0,0,0,3.14,29.92q2.43.69,9.56,2.61A48.9,48.9,0,0,0,1503,531l.7,1v6.61l-.35,1-20.53-1-30.26,1-2.44-2.44q2.79-16,2.79-23v-2.43q-11.49,7-31,20.52l-12.18,9q-2.09,1.05-9.74,1-17.74,0-29.4-12.7T1359,498.6q0-16.71,5.91-23.66,1.74-2.43,6.61-5.22,12.87-9,38.27-15.3Zm1.74,9.74q-33.06,0-63.31,18.09-4.18,6.27-4.18,17.4,0,12.52,7.31,20.7t19.48,8.17q10.42,0,21.91-6.26a71.41,71.41,0,0,0,7-4.35q4.88-3.3,11.83-8.87Z"/><path class="cls-4" d="M1400,544.93c-12.51,0-23-4.55-31.24-13.51s-12.31-19.94-12.31-32.82c0-11.8,2.11-20,6.44-25.2,1.38-1.89,3.75-3.79,7.24-5.79,8.8-6.15,21.92-11.41,39-15.62l.14,0,40.29-7.51.46-.46a111,111,0,0,0-1.53-18.7,59,59,0,0,0-4.49-14.68c-5.13-10.26-14.07-15.27-27.31-15.27-6.75,0-12.44,1.19-16.93,3.54-5.37,3-8,7-8,12.3l.68,8.19,1.14,9.12-2.35,4.11-18.29,4.19-2.67-.57c-4.07-1.56-6.13-6.09-6.13-13.46,0-12.42,11.67-25.42,35.66-39.72a45.19,45.19,0,0,1,23.55-6.61c21.56,0,37.31,5.92,46.81,17.62,8.23,10.41,12.39,26.61,12.39,48.19l-2.09,54.36a146.15,146.15,0,0,0,2.79,27.84c1.77.49,4.43,1.21,8.06,2.18a46.52,46.52,0,0,0,11.7,1.83h1.34l1.86,2.78V539l-1.08,3.23-22.32-1.14-31.24,1.08-4.12-4.12.22-1.28a180.85,180.85,0,0,0,2.69-20.45c-7.13,4.49-16.18,10.55-27,18.06l-12.48,9.23C1409.65,544.23,1407.31,544.93,1400,544.93Zm10.27-88.07c-16.52,4.08-29.08,9.09-37.36,14.91l-.2.12c-3.63,2.08-5.16,3.6-5.81,4.5l-.13.17c-3.53,4.15-5.32,11.57-5.32,22,0,11.59,3.7,21.5,11,29.44s16.35,11.89,27.55,11.89c5.9,0,7.87-.48,8.47-.72l12-8.88c13-9,23.45-16,31.16-20.65l3.8-2.3v6.87c0,4.63-.85,11.87-2.6,22.11l.75.75,29.29-1h.1l18.25.92V533.4a55.35,55.35,0,0,1-11.2-1.95c-4.83-1.29-8-2.15-9.61-2.62l-1.45-.42-.3-1.48a151.69,151.69,0,0,1-3.19-30.42l2.09-54.37c0-20.32-3.8-35.49-11.29-45-8.48-10.44-22.93-15.74-42.91-15.74a40.27,40.27,0,0,0-21,5.9c-22,13.15-33.23,25.06-33.23,35.43,0,3.42.49,7.67,2.76,8.73l1,.19,15.11-3.46.43-.76-1-7.63-.7-8.55c0-7.21,3.59-12.86,10.67-16.8,5.27-2.76,11.75-4.14,19.31-4.14,15.1,0,25.81,6.08,31.8,18.08a63.25,63.25,0,0,1,4.92,16A117.6,117.6,0,0,1,1455,445v1l-3,3Zm1.56,66.5c-8.83,0-16-3-21.35-9s-7.94-13.42-7.94-22.36c0-7.89,1.55-14.21,4.6-18.78l.31-.47.48-.29c20.48-12.24,42.22-18.45,64.6-18.45h2.5v48.58l-.94.75c-4.68,3.75-8.71,6.77-12,9a73.43,73.43,0,0,1-7.25,4.51C1427,521.15,1419.19,523.36,1411.84,523.36ZM1391,476.44c-2.3,3.71-3.46,8.94-3.46,15.55,0,7.78,2.18,14,6.67,19s10.18,7.34,17.62,7.34c6.5,0,13.47-2,20.72-6a69.28,69.28,0,0,0,6.75-4.22c2.94-2,6.55-4.69,10.73-8V459C1429.64,459.47,1409.79,465.32,1391,476.44Z"/><path class="cls-1" d="M1520.72,532.34l1-1.74c5.1,0,8.75-.11,11-.35a23.26,23.26,0,0,0,7.14-2.08q8-3.82,8-47l-1-39-1.74-38.61a43.75,43.75,0,0,0-10.78-4.7,44.62,44.62,0,0,0-12.18-1.57l-1-1v-6.26l.7-1.05,25-3.47a120,120,0,0,0,24.36-7l3.13,1.39-1.4,26.09,1.4,1q17.73-16,23.83-20a48,48,0,0,1,13.56-6.09,61.45,61.45,0,0,1,16.53-2.08q26.77,0,38.26,18.78,8.7,15.32,8.7,43.49l-.69,27.13-.7,27.13q0,25.76,4.52,30.62l2.78,2.43q5.92,1.75,18.44,3.13l.35,3.48v3.48l-1,1.39-27.14-1.39-28.18.7-1.39-2.79q5.91-19.47,5.92-56.7l.34-27.83q0-53.57-34.78-53.57-23.31,0-39.66,21.57l-1,41.74-.34,13.92-.35,14.26q0,33.75,8.7,39.31l8.34.69,8.35,1.05,1.74,1v6.26l-.34,1.4-33.75-1-43.83,1-.7-1Z"/><path class="cls-4" d="M1700,542.56l-28.37-1.46-29.67.74-2.55-5.1.29-1c3.85-12.7,5.81-31.53,5.81-56l.34-27.86c0-34.34-10.56-51-32.28-51-14.62,0-26.79,6.52-37.18,19.94L1574.71,490c0,25.52,3.75,34.18,7.08,36.81l7.78.65,8.87,1.11,3.4,2.05v8l-.91,3.65-35.69-1.11-45.14,1.08-1.88-2.82v-7.71l2.13-3.55h1.42c5,0,8.6-.11,10.69-.33a20.68,20.68,0,0,0,6.36-1.88c1.94-.93,6.54-7.18,6.54-44.69l-1-38.89-1.67-37.21a42,42,0,0,0-9-3.77,42.82,42.82,0,0,0-11.5-1.47h-1l-2.51-2.51V389.3l1.74-2.61,26.1-3.62a117.08,117.08,0,0,0,23.77-6.79l1-.43,5.7,2.53-1.29,24.2c10.39-9.29,17.33-15.05,21.16-17.57A51.17,51.17,0,0,1,1611,378.6a64.42,64.42,0,0,1,17.2-2.17c18.7,0,32.29,6.72,40.4,20,6,10.61,9.06,25.66,9.06,44.79l-1.39,54.33c0,21.12,2.33,27.1,3.78,28.76l2.25,2a119.58,119.58,0,0,0,17.49,2.9l2,.22.56,5.74v4.32Zm-28.3-6.46,25.64,1.32v-2.17l-.13-1.35a107.78,107.78,0,0,1-16.86-3l-.53-.15-3.38-3c-2.23-2.4-5.19-8.36-5.19-32.32l1.39-54.33c0-18.18-2.82-32.4-8.37-42.19-7.19-11.76-19-17.51-36.09-17.51a59.27,59.27,0,0,0-15.85,2,45.55,45.55,0,0,0-12.87,5.77c-3.92,2.58-11.84,9.23-23.53,19.77l-1.53,1.38-4.1-3.08,1.37-25.71-.57-.25a125.11,125.11,0,0,1-23.86,6.69l-.12,0-23.59,3.28v3.59a44.83,44.83,0,0,1,22.79,6.6l1.15.69,1.8,40,1,39c0,39.7-5,47.19-9.43,49.29a25.91,25.91,0,0,1-8,2.32c-2.07.22-5.28.34-9.76.36v4l42-1h.07l31.51,1v-3.67l-.07,0-7.77-1-8.92-.74-.52-.33c-6.72-4.3-9.85-17.46-9.85-41.42l1.76-70.79.49-.65c11.34-15,25.36-22.55,41.65-22.55,24.74,0,37.28,18.86,37.28,56.07l-.34,27.86c0,24.31-1.93,43.3-5.74,56.44l.24.48Z"/><path class="cls-1" d="M1011.78,591.5l1.05-.69,40.7,1.73,61.22-2.43,5.22-.35q25,0,42.45,12.18,20.16,13.92,20.17,37.57,0,25.4-15.65,39.66-8,7.65-38.62,21.22l.35,2.08q64.35,0,64.36,59.49,0,34.8-30.27,55.66-26.79,17.75-63.66,17.74l-20.18-1-20.17-1q-11.49,0-34.44,2.08l-1-1.39v-5.56l.7-1.74,7-2.09,7.3-2.09q1.4-12.16,2.44-32.18t1-42.61V681.25q0-46.61-4.52-75.14-6.27-4.17-23.66-6.26l-1.74-1Zm74.8,106.8q27.48,0,44.87-11.48,19.83-13.22,19.83-40,0-42.78-54.27-42.79-21.23,0-25.39,2.79,0,19.49-.7,32.52t-1.39,30.44l.7,28.18h9Zm9,124.54q29.57,0,47-14.61T1160,764.05q0-29.56-17.39-42.79-15.31-11.47-46.27-11.48-7.3,0-13.92.35a91.3,91.3,0,0,0-12.17,1.39V787a291.25,291.25,0,0,0,1.39,31.31,119.89,119.89,0,0,0,12.7,3.13A62.26,62.26,0,0,0,1095.62,822.84Z"/><path class="cls-4" d="M1023.14,838l-2.38-3.17v-6.89l1.32-3.3,8.12-2.43,5.72-1.64c.85-7.88,1.6-18.08,2.24-30.37.69-13.24,1-27.53,1-42.48V681.25c0-30.16-1.45-54.91-4.31-73.61-4.06-2.28-11.34-4.07-21.67-5.31l-.53-.06-3.41-2V590.16l2.84-1.89,41.41,1.77,61.13-2.43,5.31-.35c17.14,0,31.9,4.25,43.88,12.63,14.09,9.72,21.24,23.06,21.24,39.62,0,17.58-5.54,31.55-16.47,41.5-5,4.82-16.07,11.1-33.62,19.11,40.17,1.94,60.53,22.72,60.53,61.84,0,24-10.55,43.37-31.35,57.72-18.23,12.07-40.11,18.18-65.08,18.18H1099l-40.29-2.08c-7.54,0-19,.7-34.15,2.07Zm35.61-7.2h.13l40.29,2.08c23.93,0,44.87-5.84,62.21-17.32,19.33-13.33,29.15-31.37,29.15-53.58,0-38.34-20.24-57-61.86-57h-2.12l-1-6.08,1.77-.79c20-8.88,32.8-15.86,37.9-20.74,9.89-9,14.88-21.73,14.88-37.85,0-15-6.24-26.65-19.09-35.51-11.12-7.78-24.89-11.72-40.94-11.74l-5.14.34-61.4,2.45h-.1l-39.14-1.67v4l.07,0c11.81,1.46,19.73,3.62,24.22,6.6l.91.61.17,1.08c3,19.09,4.55,44.5,4.55,75.53V747.7c0,15-.35,29.42-1,42.74s-1.51,24.15-2.44,32.34l-.19,1.66L1031.6,827l-5.77,1.73-.07.18v3.83C1040.25,831.43,1051.34,830.78,1058.75,830.78Zm36.87-5.44a64.48,64.48,0,0,1-11.78-1.44,118.94,118.94,0,0,1-13-3.2l-1.56-.48-.18-1.63a296.15,296.15,0,0,1-1.4-31.58V709.45l2-.39a96.06,96.06,0,0,1,12.51-1.43c4.49-.23,9.22-.35,14-.35,21.09,0,37.16,4,47.77,12,12.21,9.28,18.39,24.35,18.39,44.79s-6.15,35.9-18.29,46.09S1115.84,825.34,1095.62,825.34Zm-21.69-8.93c3.22.94,6.87,1.81,10.86,2.59a60.56,60.56,0,0,0,10.83,1.34c19,0,34.27-4.72,45.36-14s16.5-23.42,16.5-42.27-5.52-32.52-16.41-40.8c-9.7-7.28-24.76-11-44.75-11-4.75,0-9.39.12-13.79.35a93.51,93.51,0,0,0-9.8,1V787C1072.73,798.59,1073.13,808.47,1073.93,816.41Zm12.65-115.61h-.12l-7.25-.35h-11.42l-.76-30.7v-.08c.47-11.69.94-21.95,1.4-30.47s.69-19.54.69-32.39v-1.34l1.11-.74c2.07-1.38,7.09-3.21,26.78-3.21,37.67,0,56.77,15.24,56.77,45.29,0,18.67-7,32.83-20.94,42.09C1120.87,696.8,1105.31,700.8,1086.58,700.8Zm-13.91-5.35h6.72l7.25.34c17.7,0,32.32-3.73,43.44-11.07,12.58-8.38,18.7-20.79,18.7-37.92,0-27.11-16.93-40.29-51.77-40.29-14.82,0-20.62,1.07-22.89,1.86,0,12.26-.26,22.71-.7,31.09s-.92,18.68-1.39,30.32Z"/><path class="cls-1" d="M1310.61,674q32.36,0,52.18,20t19.83,53q0,39-20.18,64.36-22.26,27.48-60.18,27.48-34.1,0-54.27-22.78t-20.18-57.93q0-38.61,21.92-61.4T1310.61,674Zm-5.22,154.8q25.74,0,37.57-23.65,9-18.09,9-46.27a155.42,155.42,0,0,0-2.08-26.79,78.24,78.24,0,0,0-7-21.56q-11.48-25.4-37.92-25.4-47.31,0-47.31,65,0,28.89,9.39,50.45Q1279.65,828.75,1305.39,828.75Z"/><path class="cls-4" d="M1302.26,841.34c-23.38,0-42.26-8-56.14-23.63s-20.81-35.63-20.81-59.58c0-26.28,7.61-47.53,22.62-63.13s36.12-23.55,62.68-23.55c22.15,0,40.31,7,54,20.74s20.56,32.2,20.56,54.81c0,26.43-7,48.61-20.72,65.92C1349.11,831.79,1328.21,841.34,1302.26,841.34Zm8.35-164.89c-25.15,0-45,7.41-59.08,22s-21.22,34.71-21.22,59.66c0,22.7,6.58,41.63,19.55,56.27s30.52,21.94,52.4,21.94c24.37,0,44-8.93,58.24-26.55,13-16.38,19.62-37.51,19.62-62.79,0-21.24-6.43-38.5-19.11-51.29S1331.38,676.45,1310.61,676.45Zm-5.22,154.8c-18.16,0-31.8-10-40.55-29.66-6.38-14.64-9.61-32-9.61-51.46,0-44.82,16.76-67.55,49.81-67.55,18.61,0,32.14,9,40.2,26.87a81.14,81.14,0,0,1,7.14,22.16,158.38,158.38,0,0,1,2.12,27.22c0,19.09-3.13,35-9.3,47.39C1336.89,822.83,1323.5,831.25,1305.39,831.25ZM1305,687.58c-30.15,0-44.81,20.46-44.81,62.55,0,18.82,3.09,35.45,9.18,49.45,8,17.94,19.75,26.67,36,26.67s27.84-7.28,35.33-22.27c5.83-11.65,8.78-26.84,8.78-45.15a153.42,153.42,0,0,0-2-26.35,76.41,76.41,0,0,0-6.74-20.89C1333.4,695.41,1321.74,687.58,1305,687.58Z"/><path class="cls-1" d="M1401.4,828.41l.7-1.74a63.24,63.24,0,0,0,10.78-.7,72.14,72.14,0,0,0,8.35-2.09q11.48-9,28.87-30.26l26.1-33.75L1449.76,722q-20.54-29.24-26.44-32.36l-17.4-3.48-.69-.69v-6.61l.69-1,71,.69,1,.7v7q-14.61,1.05-15.3,6.27l1.74,3.47q3.83,7.32,10.43,17.57t18.44,26.27q24.71-28.87,31.31-46.27V692l-1.39-2.79-12.87-2.78-.7-.69v-6.61l1.39-1,29.57.35,29.22-.35.35,7-.69.7q-4.87,0-18.79,3.47-19.48,16.71-50.44,59.49l27.48,40,28.53,36.18L1574.3,827l1,1.4v5.91l-1.39,1.39-40.36-1-33.39.35-.7-1v-6.61l.7-.69,8.7-1q5.55-1,6.95-3.82-4.17-11.82-15.3-26.79l-17.75-24.7q-33.39,40.71-35.48,51.14l1.39,2.78A39.13,39.13,0,0,0,1464,827l.35,7-1.74,1-20.18-.35-39.66,1-1.39-1.39Z"/><path class="cls-4" d="M1401.79,838.24l-2.89-2.88v-7.44l1.5-3.75h1.7a61,61,0,0,0,10.33-.66,69.47,69.47,0,0,0,7.62-1.88c7.41-5.92,16.87-15.87,28.12-29.6l24.92-32.23-25.38-36.41c-16.81-23.93-23-30-25.28-31.42l-17.74-3.54-2-2v-8.4l1.87-2.8,73.06.72,2.77,1.85v10.62l-2.32.17c-9.64.69-12.14,2.58-12.79,3.57l1.28,2.56c2.49,4.75,6,10.59,10.31,17.33,4,6.22,9.53,14.14,16.47,23.59,14.84-17.6,24.48-32,28.67-42.71v-.33l-.59-1.18L1509,688.76l-2-2v-8.89l3.07-2.31,30.42.36,31.57-.38.52,10.47-2.21,2.22h-1c-3,0-8.88,1.09-17.61,3.26-12.5,10.83-28.83,30.08-48.56,57.24l26.43,38.48,27.84,35.3,18.12,2.09,2.19,2.92v7.79l-2.88,2.88-41.43-1.07-34.66.36-1.87-2.8v-8.4l2-2,9.47-1.14a9.9,9.9,0,0,0,4.53-1.76c-2.78-7.32-7.65-15.68-14.5-24.89l-15.86-22.08c-24.16,29.63-31.27,41.8-32.71,46.73l.56,1.12a37.62,37.62,0,0,0,13.49,2.24h2.38l.54,10.83-3.64,2.19-20.84-.36Zm131.78-6.07,39.27,1v-3.82l-17.95-2.07-29.27-37.13-28.48-41.45,1-1.43c20.67-28.56,37.77-48.72,50.84-59.92l.45-.39.58-.14c8-2,13.8-3.15,17.49-3.46l-.13-2.72-26.82.32-28.49-.33v3.66l12.77,2.76,2.19,4.39v2.44l-.16.43c-4.49,11.81-15.17,27.62-31.75,47l-2,2.39-1.87-2.53c-7.88-10.66-14.12-19.54-18.53-26.39s-8-12.84-10.55-17.77l-2.1-4.2.1-.76c.77-5.81,8.54-7.56,15.28-8.23V681l-67.7-.67v3.65l16.44,3.28.32.17c2.76,1.47,8.6,6.49,27.31,33.13L1479.3,760l-27.22,35.2c-11.71,14.28-21.55,24.59-29.3,30.7l-.37.29-.44.13a73.54,73.54,0,0,1-8.64,2.16,59.62,59.62,0,0,1-9.43.73v4l38.54-1,19.35.33-.15-3a40.17,40.17,0,0,1-13.9-2.93l-.85-.35-2.19-4.38.17-.84c1.49-7.44,13.26-24.52,36-52.24l2.07-2.51,19.64,27.34c7.51,10.1,12.78,19.33,15.63,27.41l.35,1-.47.95c-1.31,2.61-4.17,4.3-8.73,5.16l-.17,0L1502,829v3.53Z"/></svg>