<svg id="Layer_2" data-name="Layer 2" xmlns="http://www.w3.org/2000/svg" viewBox="0 0 1080.43 1080"><defs><style>.cls-1{fill:#f5c693;}.cls-2{fill:#c69c6d;}.cls-3{fill:#fff;}</style></defs><title>Artboard 2</title><path class="cls-1" d="M805.88,555.08V426.43H960.27l-4.77-38.17A34.77,34.77,0,0,0,921,357.81H703V700.89H986V555.08Z"/><circle class="cls-1" cx="780.15" cy="838.12" r="85.77"/><path class="cls-1" d="M94,649.43v85.76c0,50.88,37.45,93.33,86.13,101.42-.14-2.35-.36-4.68-.36-7.07a120.08,120.08,0,1,1,240.15,0c0,2.9-.23,5.73-.43,8.58H660.08a120,120,0,0,1,240.07-1.55C948.69,828.36,986,786,986,735.19V649.43Z"/><circle class="cls-1" cx="299.85" cy="829.54" r="85.77"/><rect class="cls-2" x="196.92" y="148.63" width="234.91" height="234.91"/><path class="cls-3" d="M348.69,197.47H245.76V334.7H383V197.47Zm0,68.61v34.31H280.07V231.78h68.62Z"/><rect class="cls-2" x="196.92" y="397.36" width="234.91" height="234.91"/><path class="cls-3" d="M348.69,446.2H245.76V583.43H383V446.2Zm0,68.62v34.3H280.07V480.51h68.62Z"/><rect class="cls-2" x="445.65" y="397.36" width="234.91" height="234.91"/><rect class="cls-3" x="494.49" y="446.2" width="34.31" height="34.31"/><rect class="cls-3" x="563.11" y="446.2" width="34.31" height="34.31"/><rect class="cls-3" x="528.8" y="480.51" width="34.31" height="34.31"/><rect class="cls-3" x="597.42" y="480.51" width="34.31" height="34.31"/><rect class="cls-3" x="494.49" y="514.82" width="34.31" height="34.31"/><rect class="cls-3" x="563.11" y="514.82" width="34.31" height="34.31"/><rect class="cls-3" x="528.8" y="549.12" width="34.31" height="34.31"/><rect class="cls-3" x="597.42" y="549.12" width="34.31" height="34.31"/><rect class="cls-2" x="445.65" y="148.63" width="234.91" height="234.91"/><path class="cls-3" d="M597.42,197.47H494.49V334.7H631.73V197.47Zm0,68.61v34.31H528.8V231.78h68.62Z"/></svg>